<?xml version="1.0" standalone="no"?>
<!DOCTYPE svg PUBLIC "-//W3C//DTD SVG 20010904//EN"
 "http://www.w3.org/TR/2001/REC-SVG-20010904/DTD/svg10.dtd">
<svg version="1.0" xmlns="http://www.w3.org/2000/svg"
 width="396.000000pt" height="134.000000pt" viewBox="0 0 396.000000 134.000000"
 preserveAspectRatio="xMidYMid meet">

<g transform="translate(0.000000,134.000000) scale(0.100000,-0.100000)"
fill="#000000" stroke="none">
<path d="M3380 1323 c-8 -3 -25 -15 -37 -26 -22 -19 -23 -29 -23 -144 l0 -123
-67 0 c-207 -1 -310 -44 -458 -194 -87 -88 -111 -120 -184 -248 -97 -170 -169
-262 -243 -310 -73 -48 -108 -58 -204 -58 l-83 0 -3 257 c-3 256 -3 259 -30
315 -35 76 -109 153 -183 191 -57 30 -66 32 -170 32 -100 0 -115 -3 -166 -28
l-57 -27 -30 30 c-39 38 -88 41 -129 6 l-28 -24 0 -446 0 -445 23 -23 c35 -35
106 -32 138 5 l24 28 0 275 c0 165 4 292 11 318 38 153 237 208 352 98 61 -58
61 -60 67 -395 l5 -308 25 -20 c23 -18 39 -19 200 -17 175 3 175 3 244 36 38
18 100 58 138 88 110 89 166 163 296 390 87 152 169 234 268 269 30 11 122 14
409 15 275 0 374 4 386 13 39 30 51 96 24 134 -25 36 -72 44 -216 39 -193 -8
-179 -17 -179 125 0 108 -2 120 -22 143 -23 26 -70 40 -98 29z"/>
<path d="M433 1296 l-28 -24 0 -198 0 -197 90 -18 c50 -10 91 -19 93 -19 1 0
2 96 2 214 0 212 0 213 -25 240 -33 35 -92 36 -132 2z"/>
<path d="M2581 1019 c-24 -5 -71 -21 -105 -37 -207 -98 -319 -306 -281 -524
14 -80 47 -158 68 -158 17 0 54 26 98 67 l37 35 -15 56 c-27 101 -2 207 66
285 43 49 141 97 198 97 40 0 50 5 101 54 31 30 70 65 87 79 l30 25 -55 16
c-57 17 -157 19 -229 5z"/>
<path d="M1021 994 c-17 -14 -90 -93 -162 -175 -72 -82 -135 -149 -141 -149
-6 0 -27 14 -48 30 -150 119 -367 133 -518 34 -105 -69 -162 -203 -142 -329
13 -79 46 -140 107 -195 64 -59 133 -84 221 -82 59 2 62 1 62 -21 0 -47 62
-86 115 -73 52 13 65 39 65 129 1 82 1 82 40 125 22 24 40 50 40 57 0 24 -143
150 -197 172 -28 12 -54 19 -57 15 -3 -3 -6 -52 -6 -108 0 -103 0 -104 -26
-110 -87 -22 -173 36 -181 123 -8 75 21 124 92 159 48 23 64 26 115 21 101 -9
190 -71 334 -232 324 -363 326 -365 382 -351 42 11 74 50 74 90 0 39 -17 60
-234 296 -53 57 -96 107 -96 111 0 4 72 89 160 190 88 101 160 191 160 200 0
32 -23 70 -51 85 -41 21 -74 17 -108 -12z"/>
<path d="M3080 739 c-30 -16 -63 -38 -73 -48 -18 -18 -18 -20 -1 -52 13 -25
18 -56 18 -114 0 -72 -3 -86 -33 -143 -57 -106 -148 -166 -271 -179 -55 -5
-70 -12 -104 -43 -23 -20 -58 -49 -79 -65 -21 -15 -34 -31 -30 -36 20 -19 124
-39 202 -39 195 1 366 112 458 298 35 71 38 82 42 185 3 100 1 115 -23 177
-15 38 -33 73 -39 79 -9 7 -29 1 -67 -20z"/>
<path d="M3318 573 c-2 -109 0 -227 4 -262 14 -109 79 -200 180 -252 32 -17
66 -24 130 -27 76 -4 92 -1 140 20 114 53 166 132 175 265 5 74 4 81 -20 108
-21 25 -33 30 -72 30 -39 0 -51 -5 -71 -28 -19 -23 -23 -38 -23 -86 1 -73 -12
-98 -64 -121 -49 -22 -89 -17 -135 17 -59 44 -62 59 -62 308 l0 225 -89 0 -89
0 -4 -197z"/>
</g>
</svg>
